<svg width="24" height="24" viewBox="0 0 24 24" fill="none" xmlns="http://www.w3.org/2000/svg">
<g id="list">
<path id="Icon" d="M20.9996 12L8.99963 12M20.9996 6L8.99963 6M20.9996 18L8.99963 18M4.99963 12C4.99963 12.5523 4.55192 13 3.99963 13C3.44735 13 2.99963 12.5523 2.99963 12C2.99963 11.4477 3.44735 11 3.99963 11C4.55192 11 4.99963 11.4477 4.99963 12ZM4.99963 6C4.99963 6.55228 4.55192 7 3.99963 7C3.44735 7 2.99963 6.55228 2.99963 6C2.99963 5.44772 3.44735 5 3.99963 5C4.55192 5 4.99963 5.44772 4.99963 6ZM4.99963 18C4.99963 18.5523 4.55192 19 3.99963 19C3.44735 19 2.99963 18.5523 2.99963 18C2.99963 17.4477 3.44735 17 3.99963 17C4.55192 17 4.99963 17.4477 4.99963 18Z" stroke="white" stroke-width="2" stroke-linecap="round" stroke-linejoin="round"/>
</g>
</svg>
