<svg width="24" height="24" viewBox="0 0 24 24" fill="none" xmlns="http://www.w3.org/2000/svg">
<g id="message-circle-01">
<path id="Icon" d="M21 11.5C21 16.1944 17.1944 20 12.5 20C11.4232 20 10.3932 19.7998 9.44515 19.4345C9.27181 19.3678 9.18514 19.3344 9.11622 19.3185C9.04844 19.3029 8.99936 19.2963 8.92985 19.2937C8.85918 19.291 8.78164 19.299 8.62655 19.315L3.50553 19.8444C3.01729 19.8948 2.77317 19.9201 2.62917 19.8322C2.50374 19.7557 2.41831 19.6279 2.39557 19.4828C2.36946 19.3161 2.48612 19.1002 2.71943 18.6684L4.35508 15.6408C4.48979 15.3915 4.55714 15.2668 4.58764 15.1469C4.61777 15.0286 4.62506 14.9432 4.61542 14.8214C4.60566 14.6981 4.55156 14.5376 4.44336 14.2166C4.15584 13.3636 3.99999 12.45 3.99999 11.5C3.99999 6.80558 7.80557 3 12.5 3C17.1944 3 21 6.80558 21 11.5Z" stroke="white" stroke-width="2" stroke-linecap="round" stroke-linejoin="round"/>
</g>
</svg>
